<svg xmlns="http://www.w3.org/2000/svg" viewBox="0 0 1080 1080"><defs><style>.cls-1{fill:#f47e3e;}.cls-2{fill:#646e78;}</style></defs><g id="Layer_2" data-name="Layer 2"><rect class="cls-1" x="86.59" y="437.77" width="42.78" height="173.57"/><path class="cls-1" d="M280.84,484.4C268.57,472.83,254.54,469,238.06,469c-20.34,0-31.56,6.31-31.56,17.18,0,11.22,10.17,17.53,32.26,18.93,32.61,2.11,74,9.39,74,60.83l-52.3,51.38c-52.52,0-76.74-4.56-102-30.86l21-30.5c12.28,13.67,40.33,23.84,59.61,24.19,16.13.35,31.21-8.06,31.21-20.69,0-11.92-9.82-16.83-34.36-18.23-32.61-2.46-71.53-14.38-71.53-53.65,0-40,41.37-54,72.93-54,27,0,47.34,5.26,67.32,22.79Z"/><path class="cls-1" d="M511.91,525.08c0,49.79-34,90.11-90.12,90.11S332,574.87,332,525.08c0-49.44,36-90.12,94.21-90.12Zm-137.1,0c0,26.3,15.78,50.84,47,50.84s47-24.54,47-50.84l-50.65-51.2C393.31,473.88,374.81,499.13,374.81,525.08Z"/><path class="cls-1" d="M583.78,366.24v245.1H541.35V366.24Z"/><path class="cls-1" d="M800.48,438.12,726.84,612H680.56l-74-173.92h46.64s34.58,130.09,50.49,130.09c16.8,0,50.14-130.09,50.14-130.09Z"/><path class="cls-1" d="M867.82,540.16,909.17,577c15.78,0,36.47-6,46.29-16.13l27.35,27c-18.24,18.94-48,28.06-74.34,28.06,0,0-95-91.35-95-92.22,0-52.6,35.76-90.47,91.86-90.47,57.86,0,94,35.77,87.32,107Zm83.78-35.42c-2.8-22.44-20.34-33.66-44.88-33.66-23.15,0-42.08,11.22-48.39,33.66Z"/><path class="cls-2" d="M322.25,726.61c-8.93,8.78-18.34,12.23-29.78,12.23-22.41,0-41.07-13.48-41.07-40.91S270.06,657,292.47,657c11,0,19.43,3.14,27.9,11.44l-12.07,12.7a23.46,23.46,0,0,0-15.52-6.11c-12.85,0-22.25,9.4-22.25,22.88,0,14.73,10,22.57,21.94,22.57,6.11,0,12.23-1.72,16.93-6.43Z"/><path class="cls-2" d="M409.08,697.93c0,22.26-15.2,40.28-40.28,40.28s-40.13-18-40.13-40.28c0-22.1,15.36-40.28,40-40.28S409.08,675.83,409.08,697.93Zm-61.28,0c0,11.75,7.05,22.73,21,22.73s21-11,21-22.73c0-11.6-8.15-22.88-21-22.88C355,675.05,347.8,686.33,347.8,697.93Z"/><path class="cls-2" d="M479.14,736.49V696.05c0-11.76-6.43-20.69-18.65-20.69-11.76,0-19.75,9.87-19.75,21.63v39.5h-19V697.22C421.77,656,460,658,460,658c18.18,0,38.24,13.64,38.24,37.93v40.6Z"/><path class="cls-2" d="M571.61,736.49V696.05c0-11.76-6.42-20.69-18.65-20.69-11.75,0-19.75,9.87-19.75,21.63v39.5h-19V697.22c0-41.23,38.24-39.26,38.24-39.26,18.18,0,38.24,13.64,38.24,37.93v40.6Z"/><path class="cls-2" d="M623.49,704.67c1.25,9.56,9.56,16.46,23,16.46,7.05,0,16.3-2.67,20.69-7.21L679.44,726c-8.15,8.46-21.47,12.54-33.22,12.54-26.65,0-42.48-16.46-42.48-41.23,0-23.51,16-40.43,41.07-40.43,25.86,0,42,16,39,47.8Zm42-15.83c-1.26-10-9.09-15.05-20.07-15.05-10.34,0-18.8,5-21.63,15.05Z"/><path class="cls-2" d="M764.87,726.61c-8.94,8.78-18.34,12.23-29.78,12.23-22.42,0-41.07-13.48-41.07-40.91S712.67,657,735.09,657c11,0,19.43,3.14,27.9,11.44l-12.07,12.7a23.46,23.46,0,0,0-15.52-6.11c-12.85,0-22.26,9.4-22.26,22.88,0,14.73,10,22.57,22,22.57,6.11,0,12.22-1.72,16.92-6.43Z"/><path class="cls-2" d="M800.29,637.43v21.94H821.6v16.46H800.13v33.38c0,7.37,4.08,11,10,11a21.85,21.85,0,0,0,9.25-2.35l5.33,16.3a42.88,42.88,0,0,1-15.83,3.29c-16.77.62-27.75-8.94-27.75-28.22V675.83H766.75V659.37h14.41v-19.9Z"/><rect class="cls-1" x="88.19" y="369.94" width="39.57" height="39.57"/></g></svg>